<svg version="1.2" xmlns="http://www.w3.org/2000/svg" viewBox="0 0 512 512" width="512" height="512">
	<title>333172-PAQRLO-751-ai</title>
	<defs>
		<clipPath clipPathUnits="userSpaceOnUse" id="cp1">
			<path d="m756 756h-1000v-1000h1000z"/>
		</clipPath>
		<linearGradient id="g1" x1="41.6" y1="144" x2="472.4" y2="144" gradientUnits="userSpaceOnUse">
			<stop offset="0" stop-color="#ffd000"/>
			<stop offset=".3" stop-color="#d5102a"/>
			<stop offset=".65" stop-color="#a2248f"/>
			<stop offset="1" stop-color="#1ba0de"/>
		</linearGradient>
	</defs>
	<style>
		.s0 { fill: url(#g1) } 
		.s1 { fill: #3f3f3f } 
	</style>
	<g id="BACKGROUND">
		<g id="&lt;Clip Group&gt;" clip-path="url(#cp1)">
		</g>
	</g>
	<g id="OBJECTS">
		<g id="&lt;Group&gt;">
		</g>
		<g id="&lt;Group&gt;">
		</g>
		<g id="&lt;Group&gt;">
		</g>
		<g id="&lt;Group&gt;">
		</g>
		<path id="&lt;Path&gt;" class="s0" d="m51.4 195.8c20.9-37 60.4-57.7 98.8-50.3 28.4 5.4 48.6 29.3 70 49.1 20.8 19.4 95.5 90.8 102 97.3 15.2 15.3 34.6 31.7 56.1 31.7 32.9 0 59.7-30.4 59.7-67.7 0-23.1-11.8-45-28.5-57.5-10.3-7.8-20.8-10.3-31.1-9.3-17.7 1.8-34.8 13.8-49.3 27.4q-18.2 17.1-36.3 34.2l-30.2-28q15.1-14.1 30.2-28.1c21.3-19.8 41.5-43.7 69.9-49.1 38.4-7.4 77.9 13.3 98.8 50.3 10.1 17.9 15.4 38.9 15.4 60.1 0 56.5-38.9 105.5-88.6 111.2-28.7 3.3-57.9-9.6-78.8-31.7-24.2-25.5-50.3-48.1-75.8-71.9q-1.5-1.5-3.1-2.9c-15.5-14.8-31.1-29.5-46.7-44.1-14.6-13.6-31.6-25.6-49.3-27.4-10.3-1-20.8 1.5-31.1 9.3-16.7 12.5-28.6 34.4-28.6 57.5 0 32.8 23.2 61.7 51.5 67 14.7 2.7 29.7-1.5 41.4-11.8 17.8-15.7 34.9-32.8 52.3-49q4.9 4.6 9.8 9.2c6.7 6.4 13.6 12.9 20.5 19.4-14.2 13.4-28.4 26.7-42.7 40-32.1 29.8-68.6 47.6-109.5 29.1-34.4-15.6-58.9-52.9-61.9-94.8q-0.3-4.6-0.3-9.1c0-21.2 5.4-42.2 15.4-60.1z"/>
		<g id="&lt;Group&gt;">
		</g>
		<g id="&lt;Group&gt;">
		</g>
	</g>
	<g id="DESIGNED BY FREEPIK">
		<g id="&lt;Group&gt;">
			<g id="&lt;Group&gt;">
			</g>
			<g id="&lt;Group&gt;">
				<g id="&lt;Group&gt;">
					<path id="&lt;Path&gt;" class="s1" d="m354.9 714.7q-0.7 0-1.3 0.5-0.5 0.5-0.5 1.3 0 0.8 0.6 1.3 0.5 0.5 1.2 0.5 0.7 0 1.3-0.5 0.5-0.5 0.5-1.3 0-0.8-0.5-1.3-0.6-0.5-1.3-0.5z"/>
				</g>
				<g id="&lt;Group&gt;">
					<path id="&lt;Path&gt;" class="s1" d="m247.8 714.9q0 0 0 0 0 0 0 0z"/>
					<path id="&lt;Path&gt;" class="s1" d="m247.7 714.7q-0.1-0.1-0.1-0.1 0 0.1 0.1 0.1z"/>
					<path id="&lt;Path&gt;" class="s1" d="m247 713.1q0.3 0.7 0.6 1.4-0.4-0.7-0.6-1.4z"/>
				</g>
			</g>
		</g>
	</g>
</svg>